<mxfile host="drawio-plugin" modified="2022-01-09T09:19:40.999Z" agent="5.0 (Windows NT 6.2; Win64; x64) AppleWebKit/537.36 (KHTML, like Gecko) Chrome/89.0.4389.114 Safari/537.36" etag="bU-x4-Ct5mt3pKvixSTE" version="15.5.4" type="embed" pages="4"><diagram id="395m5o5xGBPSLpsiOudW" name="資料庫預覽1"><mxGraphModel dx="647" dy="362" grid="1" gridSize="10" guides="1" tooltips="1" connect="1" arrows="1" fold="1" page="1" pageScale="1" pageWidth="827" pageHeight="1169" math="0" shadow="0"><root><mxCell id="0"/><mxCell id="1" parent="0"/><mxCell id="3" value="帳密資料" style="swimlane;fontStyle=0;childLayout=stackLayout;horizontal=1;startSize=26;fillColor=none;horizontalStack=0;resizeParent=1;resizeParentMax=0;resizeLast=0;collapsible=1;marginBottom=0;" parent="1" vertex="1"><mxGeometry x="110" y="150" width="140" height="78" as="geometry"/></mxCell><mxCell id="4" value="電子郵件 varchar(50) PK" style="text;strokeColor=none;fillColor=none;align=left;verticalAlign=top;spacingLeft=4;spacingRight=4;overflow=hidden;rotatable=0;points=[[0,0.5],[1,0.5]];portConstraint=eastwest;fontStyle=4" parent="3" vertex="1"><mxGeometry y="26" width="140" height="26" as="geometry"/></mxCell><mxCell id="5" value="密碼 varchar(50)" style="text;strokeColor=none;fillColor=none;align=left;verticalAlign=top;spacingLeft=4;spacingRight=4;overflow=hidden;rotatable=0;points=[[0,0.5],[1,0.5]];portConstraint=eastwest;" parent="3" vertex="1"><mxGeometry y="52" width="140" height="26" as="geometry"/></mxCell><mxCell id="11" style="edgeStyle=orthogonalEdgeStyle;rounded=0;orthogonalLoop=1;jettySize=auto;html=1;" parent="1" source="4" target="17" edge="1"><mxGeometry relative="1" as="geometry"><mxPoint x="280" y="304" as="targetPoint"/></mxGeometry></mxCell><mxCell id="16" value="會員資料" style="swimlane;fontStyle=0;childLayout=stackLayout;horizontal=1;startSize=26;fillColor=none;horizontalStack=0;resizeParent=1;resizeParentMax=0;resizeLast=0;collapsible=1;marginBottom=0;" parent="1" vertex="1"><mxGeometry x="320" y="160" width="160" height="182" as="geometry"/></mxCell><mxCell id="17" value="電子郵件 varchar(50) PK" style="text;strokeColor=none;fillColor=none;align=left;verticalAlign=top;spacingLeft=4;spacingRight=4;overflow=hidden;rotatable=0;points=[[0,0.5],[1,0.5]];portConstraint=eastwest;fontStyle=4" parent="16" vertex="1"><mxGeometry y="26" width="160" height="26" as="geometry"/></mxCell><mxCell id="18" value="會員名稱 varchar(50)" style="text;strokeColor=none;fillColor=none;align=left;verticalAlign=top;spacingLeft=4;spacingRight=4;overflow=hidden;rotatable=0;points=[[0,0.5],[1,0.5]];portConstraint=eastwest;" parent="16" vertex="1"><mxGeometry y="52" width="160" height="26" as="geometry"/></mxCell><mxCell id="23" value="會員頭像 varchar(50) " style="text;strokeColor=none;fillColor=none;align=left;verticalAlign=top;spacingLeft=4;spacingRight=4;overflow=hidden;rotatable=0;points=[[0,0.5],[1,0.5]];portConstraint=eastwest;" parent="16" vertex="1"><mxGeometry y="78" width="160" height="26" as="geometry"/></mxCell><mxCell id="21" value="手機號碼 varchar(50)" style="text;strokeColor=none;fillColor=none;align=left;verticalAlign=top;spacingLeft=4;spacingRight=4;overflow=hidden;rotatable=0;points=[[0,0.5],[1,0.5]];portConstraint=eastwest;" parent="16" vertex="1"><mxGeometry y="104" width="160" height="26" as="geometry"/></mxCell><mxCell id="22" value="寄送地址 varchar(50)" style="text;strokeColor=none;fillColor=none;align=left;verticalAlign=top;spacingLeft=4;spacingRight=4;overflow=hidden;rotatable=0;points=[[0,0.5],[1,0.5]];portConstraint=eastwest;" parent="16" vertex="1"><mxGeometry y="130" width="160" height="26" as="geometry"/></mxCell><mxCell id="31" value="??" style="text;strokeColor=none;fillColor=none;align=left;verticalAlign=top;spacingLeft=4;spacingRight=4;overflow=hidden;rotatable=0;points=[[0,0.5],[1,0.5]];portConstraint=eastwest;" parent="16" vertex="1"><mxGeometry y="156" width="160" height="26" as="geometry"/></mxCell><mxCell id="32" value="商品資料" style="swimlane;fontStyle=0;childLayout=stackLayout;horizontal=1;startSize=26;fillColor=none;horizontalStack=0;resizeParent=1;resizeParentMax=0;resizeLast=0;collapsible=1;marginBottom=0;" parent="1" vertex="1"><mxGeometry x="541" y="160" width="140" height="208" as="geometry"/></mxCell><mxCell id="33" value="商品ID" style="text;strokeColor=none;fillColor=none;align=left;verticalAlign=top;spacingLeft=4;spacingRight=4;overflow=hidden;rotatable=0;points=[[0,0.5],[1,0.5]];portConstraint=eastwest;fontStyle=4" parent="32" vertex="1"><mxGeometry y="26" width="140" height="26" as="geometry"/></mxCell><mxCell id="34" value="商品名稱" style="text;strokeColor=none;fillColor=none;align=left;verticalAlign=top;spacingLeft=4;spacingRight=4;overflow=hidden;rotatable=0;points=[[0,0.5],[1,0.5]];portConstraint=eastwest;" parent="32" vertex="1"><mxGeometry y="52" width="140" height="26" as="geometry"/></mxCell><mxCell id="35" value="商品圖片" style="text;strokeColor=none;fillColor=none;align=left;verticalAlign=top;spacingLeft=4;spacingRight=4;overflow=hidden;rotatable=0;points=[[0,0.5],[1,0.5]];portConstraint=eastwest;" parent="32" vertex="1"><mxGeometry y="78" width="140" height="26" as="geometry"/></mxCell><mxCell id="36" value="商品價格" style="text;strokeColor=none;fillColor=none;align=left;verticalAlign=top;spacingLeft=4;spacingRight=4;overflow=hidden;rotatable=0;points=[[0,0.5],[1,0.5]];portConstraint=eastwest;" parent="32" vertex="1"><mxGeometry y="104" width="140" height="26" as="geometry"/></mxCell><mxCell id="37" value="商品敘述" style="text;strokeColor=none;fillColor=none;align=left;verticalAlign=top;spacingLeft=4;spacingRight=4;overflow=hidden;rotatable=0;points=[[0,0.5],[1,0.5]];portConstraint=eastwest;" parent="32" vertex="1"><mxGeometry y="130" width="140" height="26" as="geometry"/></mxCell><mxCell id="38" value="??" style="text;strokeColor=none;fillColor=none;align=left;verticalAlign=top;spacingLeft=4;spacingRight=4;overflow=hidden;rotatable=0;points=[[0,0.5],[1,0.5]];portConstraint=eastwest;" parent="32" vertex="1"><mxGeometry y="156" width="140" height="26" as="geometry"/></mxCell><mxCell id="39" value="??" style="text;strokeColor=none;fillColor=none;align=left;verticalAlign=top;spacingLeft=4;spacingRight=4;overflow=hidden;rotatable=0;points=[[0,0.5],[1,0.5]];portConstraint=eastwest;" parent="32" vertex="1"><mxGeometry y="182" width="140" height="26" as="geometry"/></mxCell><mxCell id="41" value="訂單資料" style="swimlane;fontStyle=0;childLayout=stackLayout;horizontal=1;startSize=26;fillColor=none;horizontalStack=0;resizeParent=1;resizeParentMax=0;resizeLast=0;collapsible=1;marginBottom=0;" parent="1" vertex="1"><mxGeometry x="320" y="410" width="140" height="130" as="geometry"/></mxCell><mxCell id="42" value="訂單ID" style="text;strokeColor=none;fillColor=none;align=left;verticalAlign=top;spacingLeft=4;spacingRight=4;overflow=hidden;rotatable=0;points=[[0,0.5],[1,0.5]];portConstraint=eastwest;fontStyle=4" parent="41" vertex="1"><mxGeometry y="26" width="140" height="26" as="geometry"/></mxCell><mxCell id="43" value="商品ID" style="text;strokeColor=none;fillColor=none;align=left;verticalAlign=top;spacingLeft=4;spacingRight=4;overflow=hidden;rotatable=0;points=[[0,0.5],[1,0.5]];portConstraint=eastwest;fontStyle=4" parent="41" vertex="1"><mxGeometry y="52" width="140" height="26" as="geometry"/></mxCell><mxCell id="49" value="買家Email" style="text;strokeColor=none;fillColor=none;align=left;verticalAlign=top;spacingLeft=4;spacingRight=4;overflow=hidden;rotatable=0;points=[[0,0.5],[1,0.5]];portConstraint=eastwest;fontStyle=4" parent="41" vertex="1"><mxGeometry y="78" width="140" height="26" as="geometry"/></mxCell><mxCell id="44" value="商品數量" style="text;strokeColor=none;fillColor=none;align=left;verticalAlign=top;spacingLeft=4;spacingRight=4;overflow=hidden;rotatable=0;points=[[0,0.5],[1,0.5]];portConstraint=eastwest;" parent="41" vertex="1"><mxGeometry y="104" width="140" height="26" as="geometry"/></mxCell><mxCell id="50" style="edgeStyle=orthogonalEdgeStyle;rounded=0;orthogonalLoop=1;jettySize=auto;html=1;exitX=1;exitY=0.5;exitDx=0;exitDy=0;entryX=0;entryY=0.5;entryDx=0;entryDy=0;" parent="1" source="4" target="49" edge="1"><mxGeometry relative="1" as="geometry"><Array as="points"><mxPoint x="269" y="198"/><mxPoint x="269" y="501"/></Array></mxGeometry></mxCell><mxCell id="51" style="edgeStyle=orthogonalEdgeStyle;rounded=0;orthogonalLoop=1;jettySize=auto;html=1;entryX=1.017;entryY=-0.242;entryDx=0;entryDy=0;entryPerimeter=0;" parent="1" source="33" target="43" edge="1"><mxGeometry relative="1" as="geometry"/></mxCell></root></mxGraphModel></diagram><diagram id="D-ShVqtNY3VRzHl_ABGv" name="資料庫預覽2"><mxGraphModel dx="647" dy="1462" grid="1" gridSize="10" guides="1" tooltips="1" connect="1" arrows="1" fold="1" page="1" pageScale="1" pageWidth="850" pageHeight="1100" math="0" shadow="0"><root><mxCell id="ueiQc-Kc5k36oUlTbui3-0"/><mxCell id="ueiQc-Kc5k36oUlTbui3-1" parent="ueiQc-Kc5k36oUlTbui3-0"/><mxCell id="u9_FV-DW1UaYwI0sYwS_-1" value="" style="shape=image;verticalLabelPosition=bottom;labelBackgroundColor=#ffffff;verticalAlign=top;aspect=fixed;imageAspect=0;image=data:image/png,iVBORw0KGgoAAAANSUhEUgAAATAAAACgCAYAAACL6jAEAAAZE0lEQVR4Ae1dz43jutPcIH7RTDR7mvtk8QFz2RwGeCHsZbJ415fAHjcDfWhJRRdLpCzJHo9IlwGh2X/Yoop2oUlL9o/BLyNgBIzANyHw9+/f4ZbjxzeN26c1AkbACNxEXkF8JjC/iYyAEfg2BG6pvkxg3zZtPrERMAKBgAnM7wMjYASaRcAE1uzUeeBGwAiYwPweMAJGoFkE1gjs58+fV5eY3sRvduo9cCPQPgI1AgvywlGLCbsJrP33gK/ACDSLQImcQFwsS3EmsGan3QM3An0goMSkpKW6xrsC6+N94KswAk0ioIQEwmJ7yQa/CazJafegjUAfCICIIIOs0GZZs5vA+ngf+CqMQJMIMEkdaZvAmpx2D9oI9IHAEdLiPiawPt4Hvgoj0CQCTEZH2iawJqfdgzYCfSBwhLS4jwmsj/eBr8IINIkAk9GRtgmsyWn3oI1AHwj8888/w9EjCM8E1sf7wFdhBJpE4Ch5RT8TWJNT7kEbgX4QMIH1M5e+EiPwdAiYwJ5uyn3BRqAfBExg/cylr8QIPB0CJrCnm3JfsBHoBwETWD9z6SsxAk+HQJ8E9t+v4eXHj+HHy6/hv9KU/n4dfoT/9XfJe5Ptf//3vyGOLS/EqtS+JT9sGqv6WtyaT/NYNwJnRODEBPZ7eA2SqRyr3PMgAgMBbJX6BkA/2FWHvSQRW5IRX7KzjWNK+W0zAi0gcGICu8D336+XfRXTgwjsMsILYcAGsoBekhqjeqlP2DjuWhv+kHixje3wWxqBVhBol8BAUlShvfyaF4zwvbwOry+XKi75dQmJeORK5R2qwNehtthUMljT9U2BWNhVV7v6oUMinuVRH+dw2wicFYG2CWxBNC/DyGGJkGZ9+G/4NRLZrDOBIXbOhWpvIrvtBBYTDLKAxKSrrnb4IeGvScSFxEttrJfa0Q925LA0Aq0h0C6BCdK/X6dKa+QhkBJt4mfERASW9Yuc5JNTFFWQAGQEoa2ymGCHUfOpXkqFGPbBBsk+t41ASwg0TWAgH97oP0pgnGNsE/mtTShIIGTthZjwo71Vck70YRvnrNmv9Qu/X0agRQSaJTCQF/a1oB8lsHkFuXsOQQ41GQnh0zbrHMP2aOOFmJpEHGQtTu2ItzQCrSHQPIFNxIM9rh9DmcBkL4uXiYXl5hC2MZH0K8xujQxgjy61Nvs4hu18So2Br2SHDRKxLNd8HOe2ETgrAs0S2Egy+Nbwx8vwMn/bmBFY8sf+GDb0C/tcIDGOP0hgIAXImPham30cw3Z+4yCmJjkWbcRCZ7nm4zi3jcBZEWiCwM4KXoxrjQTgg+R42K5JXDvHwQa5xYdYlujHNreNQEsImMBami2P1QgYgQwBE1gGhxUjYARaQsAE1tJseaxGwAhkCJjAMjisGAEj0BICJrCWZstjNQJGIEPABJbBYcUIGIGWEDCBtTRbHqsRMAIZAiawDA4rRsAItISACayl2fJYjYARyBAwgWVwWDECRqAlBExgLc2Wx2oEjECGgAksg8OKETACLSFgAmtptjxWI2AEMgRMYBkcVoyAEWgJARNYS7PlsRoBI5AhYALL4LBiBIxASwiYwFqaLY/VCBiBDIG+CYx/+z67bCtGwAj0gEATBIb/dLz89Vn9n7KzSTGBZXBYMQK9IXB6AsPfpf0Y/2Qj4J//gSjpK1NiAlsBxy4j0D4C5yYwENAPrbh+D6+JwPDXZ9M/c1f/fQj/PJT+sBZ/xTb/WxHO9fo6vOLfiSIW/cKGc8L28jq8zv+GFNUh/qMy3haJeJFr7Iux6vW0/0byFRiB70Dg1ASWlo4gDkUoEcmv4b/RVyOl30P6G7ZrBDaTZSKgMV7y4rzpr9pyYsK4E6FFvAlMZ8+6EbgZgVMTWCKRCoEtiCIWmL9ehlQNpapqB4HN58ryYNkKwgKBVcgwjTv5b54nJzACRqCAwKkJDCSSlm5yAfCnSif8TFrcvkI6WT8lwkRgtX/+rlVoWNbmy0u5DKtGwAgcRODUBJZIpbIHViKwzPZdBEaT4WqMwHDTCNwZgXMTGG+Gp2XkXO3wnlJaqkklxAQ25PtUQ9J1E//3CHFGhDsrsN+vc87IhMqPx7sg5DvPqtMZgSdB4PQEFvMAMinfBwZiwnKNyCMjMM3zMryM3yB+BYFhLLNMBIux+lvIJ/l8+TK/GIEmCOyLMXB6I2AEGkXABNboxHnYRsAIDIMJzO8CI2AEmkXABNbs1HngRsAIPA2B4QuALVOOWJVb+rYc8+fzfXh7+xj+veki/h0+3t6G988/N2VxZyOwBYEuCUyJ55quQCEedtVhT/d44XnH8fYIfNOYfxOZ3WyLBPeWfz6H9/fPYZ06/gyf7+/Dgl+ib5G8gpBqpFbzhb1wjsX1xljehjcd878fw9vb23wUzj2OFf6QFLO4jss5Fqe3oXkEuiQwnhUlH9U5Fm2NUR1xIdMtHotbJS63cySiS/eycYZHt8sE9u/HsmoK20QkRBDzcNd8ETJWcx9XarmRcN+H9xLZLYiIcBLfeC6QoPjGcV4bB6V2sy0EuiUwkM4WqVOGPrCrDnvILQSWfgLox/woEie4Z3skhM/hzyw/EwGhGpqrkVTdoPpZq5hqVVYM/KhvuuggnlhqlshzECLKYFIf69TOiC1LYKUXBLonsJgoEBAkJk91tcMPCT/LbQRGP6/zlVVYfHijEhk/xG9DKjxiSYYKZShUYOjHF5baR0mqcJ6UMxrkL51/vIZl5TemUB/raGfXnJ3YSkcIdE9gTD5oq7xlPrcSWIp7FIElwhrXc7Q3RsSBC48Pe2I7GCGPEtgwVlbVtEE0aYyFMYGIMAyW4suWiaNvXvqm/NzZ7Z4QeAoCq00YiCz8aG+VyJmIaWUPLGKxD/alm/kgBUgMMtMLZPENBDYu73gpq99cjkS0VoFhfw7L4PliU78g3uW+HiCx7AOBpyCwEinF9MGubdY5hu3Rjtc2AsND5o/dA0vfRl4jsMw/X1gSRyuwAlGmnAWfjiERUep0aWz1jXG0lL5kcKsTBJ6GwDBfTEi1dsTCB1nqH7YtBIbqq/a7Zsh9swQJQCKh6LHkypd2QVLY6EcnyKMEttJPxjOdScYQMXx7BIYTcodvqvQqlRzndLtJBJ6GwEBEkDFbtTb7OIbt0U7EdLb7wJQgSjqWb/M+UembwHFvCXGyHFvzBTYjceQsGebxVfOlMcSSNp23QD47CCxOOI31Yz67RU8IdElgIJ0zy9O9idZIYfdgpZra3d8djMA2BLoksG2X7ihF4D7LrSAvb54rtta/BgET2Nfg6qxGwAg8AIGnIbBYTm55lZad1/rtzc359HzsO01b99BuGJirvBvAc9cFAl0SmJLCmq6IKBmprvGhl/JzHPtL8Yjdci7EPlTei8DW9tnGjXvesI9bLeher3lT//K9gPfZHvoeOOnJuiQwxlpJQXWOjbb6VS/Fa4zq6AO7ytJ50ecU8k4Elr5l1IsaiS3IaklgF8LSTuvfdC6jbekRgW4JLEhiy6GTCnKBXXXYQyK/2ljnOI5HXkjts1+fKpbsAx9Vzfvn8O/4O1+Xaib9VtdMTNND3yAPqXziNossLvJc7hmbloRbctcqJthDYgxx9YXrWYCifRYBNnSOQNcEhrkDSUCqHXrIiNGD/WhzLrQhEaMS/pClQ+N36/JIULHiGaudmYDmyodJb7xnig0xCI2biTHd6Y+BruUO3+LZRCYpJSMh0je9+XYcWPm3zTAey+4R6J7AQBoxk0wa0O8xw8i7lgsxkIgNPV6QsB+TTALRvlRKl3xBDERgGalw/0uPkcA4rkhGEb+SW8g1onOCrZwbw4j+heuJHMq36GLZPwJdE9g1UoA/pB4x9WpDPN4WJT/bEMe5uM2xmpv77mmnD7RUSflSr0JgYwXFy7j5zEpYom/KvSCwZYU13X1fIt0YxxSvZJWudw9Iju0Gga4JLGZJSYKJAm1IzCp0yJIdPkjEQLIdbZURW7IhxyE5E0WQSvqwj9ULiGmlSjpCYHtycxW3uLgrFdj444labdG1LPLZ8AwIPAWB8USCMMKGNiTioEOqHTrnYFvNHvmuHZpnvz4tHd/fQVjybd1IUpUKbK5yFr8NJhUXLynH6gtMuZp7Gtfit/jTBQqBScU2nmdBgNIn5XLjWRB4CgJT0sDkgqAgt9oRF1Jzs85xiGXJfh0D+/a2Y1mVk1B80OdvCt8/ho/qHlicSZZ2QU4rBDb9rPS23DGu9A3o4qKEjEYyvHy7md9iMXXOyHORz4ZnQKB7AitNopIM62hHP7RZar7wlV4lO2yQ6Be62uDrSo6kdKkMb7u2ILzaftltmd27HQS6JbB2puC5RjpWTdn9Xkeuf6oo69XckZzu0yICJrAWZ81jNgJGYETABOY3ghEwAs0i8DQEtnWPCftRLEuzy/61tvZF7Fa7xn2Lrpv4NwziPkvItQF4ebmGTm++LgkMJLFF6oRGH36pDl/NDn/IUkzJVovlXN/avheBLTbxJ7Kp/3w0+3Xz/5rPG/zf+p550Mm7JDDGTglDdY6NtvpVRzzbo81HKWbNVjov4k8h70Rgi9so/nwOH3RjWH6vl9x5n90XtuabEPMtFqd453z5ILolMCaUtbYiHLH8Uh0+tm9pc7+ILx2IOSblQx1J4kN/+l+joKvNKrSosKjq2uxDPukPs2VXCHRNYJgpEAyk2qGH3EospbiSjXMjv9rupmdVij4sPZ9lJAK6E19+5WF5E+xX/hpFfuVZBZYRFsYwE9qaL6UMQvcyMsHRaaN7AmPSYoKJ+WTf3vlFX0juDxtkyce2aJdiNea6zlVHtEsfYPpgBxFkj+dwfzqbxqmeQldyC7mmLqkR56ZnHZWkxmchmXipOmNfyjcROJ5yIrObHSHQNYFdIwX4Q+oRc6w2xMMHyXGwsYw2XhxbaiPuqIwKavzQzstH/GbX9O0fHs0hImACW5DGPAolLNE35V4lsIm8shtTdSysczuGqPo87ITFUTDd7/QIdE1ggf4aSYQPMTxT1+zcB/nVxnopN9tqsRqzSZ+JIkglVR9hS/tJK1VShQhWn4Xck5vJMl2MVF6ZnaqsbGxSKWY+JKDrhMmyOwSegsB41kBOYUMbEnHQIdWufSNOD44p9YcNUs8F+34ZH+73oY1fo6iRV1x1EBAtKbMKbs0HxITkYLbsCoGnILASucQsgjQgMbPQIdXOfeErybX+Gq+x6t+jLzfiJ6IY77c6069RjNUblrUXmSrH+TfApvvEqBobwaBrStXlBaVxWXtJdHG41RUC3RNYabaCLHCEH22Wa/aaj/ujjfOHvva65l/r24yvuNT7itEHuZW+wPiKcznndyLQLYF9J6g+dx2BacNfq6l6/H7PVJllXwjsT+IejSBgAmtkojxMI2AElgg8DYFtXaJh6cdyCdtk4Zham/tGDL9UZ9+p2rH0K36DuH+U96nAXGXtR77PHl0SWI1MSnadViUV1TmefbV2LT7s0YcPjj1V+14EtrYHlt2OEVc/fdN4edB72uS/7Mt7n+tU75FvGkyXBMZYMrGEXXWOLflr8bCHXDuQk2Ng43MjH9tO074TgcW3o8W9qZHYgqB4b0xulSiA4W8aC6A8malbAmPCWGvrfCuRqI542FWGv2Qr2WtxOMc+WfjAR1Vz+oe5UUmF3Edg0x+KcJ99iDm6fQS6JjBMT40oYEdcyLDpwX6O4bb2gY6+qrMd7ZtldrNnCw9zM+mWCYyXkJflI5CK/r5dAmg8o+yewII48AKJwAYJ/x7JfbmNHGoLHYfGaCz8+yWTACobzUIf+sXSkPtTP41TPYWu5BZyjS75krJybuQe98iWZOXnHQHQc8quCewaMcAPYmEZbwfW0cbbJHS84FPJ/mijD+Lghw9+tu9tpw/0vHw878PcU/XFFdbUXpLUhMEUr1VYut69QDm+CwS6JrCYIZAFS8wcCANyqx15NR56zc/n4fGgzf0Pt+dKJza404d9rF6wV7RSJY2b6YijEWjFxfqe3Ku3YlypwObHitI1jcOja6Hhuvk8CDwFgfF0KomEj22s1+wcgzZIiGX4+MX5uB0xqnO/fe1p6djGw9x8ZUJgMxEjYvzGcUGA0gfBlk+DwFMQGJMKEwXakJh16JBqD32Pb29/xB+Vsax6y0qV+KDPD0uf6WHu7AKFjMZq8PKAd36LxdTRt1FkAD6l8vfv3+GW47IRdDL4lGB4eOHDEXa0Wa7Z4YOMfvpCLrZzHPwsObbLdm2Jeuhig/Bq+2WHErpTgwjcQl7Rd/nJbRAED/lxCIxVU3a/15FzTxVl8abYI+ncp1kETGDNTp0HbgSMgAnM7wEjYASaReBpCIz3n9Zmi/ek0K7Fl/y181yz1/y1cz/UzrdN3Hji+ywh1wbh5eUaOr35uiQwEMsWqROqRKI64tleayMWkuNKtpIfcd8q70Vgi038iWwuN7PqPWjs3+vzBv+3vmcedPIuCYyxU1JQnWOjrX7VSzFsi3g+ND9iOYbbpfhvt92JwOL2jmzj/c/n8PGJZwXi39Hex4fPJ4vceZ/dF7bmm9DyLRbf/q55yAC6JTAmhbW2ohyx/FIdPs3J9mhzP45FHCTHwXZMyoc6ksSH/vS/RkFXm1VoUX1R1bXZh3zSH2bLrhDomsAwUyAJSLVDD8lkgzb7tc05a230Kflhg0TsIZlVKfqw9JxxJIJ5eTW26a/L5ges85tg8cexFDcT46V22pA7zrW4kz6/yqwCywgLY5gJbc2XUvoxowRFx43uCYyJIdo4Yk7Zt2eOkUMl59TcNR12yD3jWMZy1RHt0j4QfbAXpML9KbvGqZ5CV3ILuaYuqRHnJpJUkhqfhWTipeqMfSnfRODZAwnkc7MPBLomsGukAH9IPWJ61YZ4nnq1QYfUPOgLv0r4j8r06wxSJU3f/uHRHCICrooWpDGPQglL9E25VwlsIi/dH3uvLSF1nKrPw05YHAXT/U6PQNcEFugHQeiBWamRxzU78kIiXvNCh0QcJPpDsh19dsuZKIJUUvURtkQGK1VShQgGIaxM35ObyTJdmFRemZ2qrGxsUilmPiSg64TJsjsEnoLAeNaYJNCGRBx0yDU7YiAjltvoW7PXYrnfvnZ8uN+HNn6NokZeccVBQLSkzCq4NR/QEpKD2bIrBJ6CwIIk+MAMgjwgt9oRF3JvX43nXPdqN/NrFGP1hmXtRabKcf4NsOk+MarGRqAm8iv75lsyLonuBa3znAyB7gmshHeQCI7wo81yza4+nCP68ws6JHx8Hm0jpktZXOp9xZVOVSjdYvYVJ3HOEyDQLYGdAFsPoYDAtOGv1VQh8LBpqsyyLwQO53LHsyNgAjv7DHl8RsAIVBF4GgLTZVwNEV3SHem3lpt9R8/FOR7S1m8hbzjpfSowV1k3TEFXXbsksBIx1Gw6m0pYqh+JRw6VyAU79NPJexHY2h5YdjtGIDB903h50Hva5L/sy3uf63Tvk28YUJcExjgqOajOsdFWv+rX4ms5Ig8fiGPbtXPpuR+m34nAFg9z4wJGYguC4r0xuVUCsSTHau7CaORx81kQ6JbAlBhquk60kojqHF/zrdnZx+3Iqzqf63q78IGPqub0D3Ojkgq5j8CG8TYL7nMdJUf0hUDXBIapAjFAqh16yIjRg/1oay7YIdWPnOGHDzaW6H9IZjd7tvAwN5NumcB4CbkstqJ/6XnPQ+i5U4MIdE9gIIuYGyUK9u2ZO/TjfNrG+UoS50Kemg77dskkgMpGe9OHfrE05P7UT+NUT6EruYVco0u+pKycG7nHPbIlWfl5RwD0nLJrAlOC0CmGX8nnmr2WB3b0hw4JO8to84HYozJ9oOflI37yZvr2D3e7n+Fh7qn64gprai9JasJiitcqLF3vUcDcr2kEuiawmBkmB7QxY6EjBjbW4YdPdY5FTMmG85bkWj/2bW7PlU4QVvqwj9UL9opWqqRxMx1xdEatuFjfk7v4MDfOc6UCmx8rStc0dqNrQRrLp0LgKQiMZ5RJCG1IxEGHVDv0kBpTs5Xs0VcPzn2sPS0d23iYm69QCGwmYkSMFeSCAKUPgi2fBoGnILAaSYB8IDHr0CHVXtPX7MgFqbFqh/+IjGVV/quq8UGfl4/vH8MHNr65kkonkqVdlDwal+nbc8e46o/4CBnFOTDmUS4rQ99GkSbtaRvdE1hpZoMscIQfbZZb7Job/Ut2tkVcvCDhUx32buRISksiOnZ9QXi1/bJjGd2rPQS6JbD2puI5Rjx9mXAriU1VX72aew4sfZXDYALzu8AIGIFmETCBNTt1HrgRMAImML8HjIARaBYBE1izU+eBGwEjoAT28+fP4r5YzZ7/hrLxNAJGwAg8EIESgSlZha429DOBPXCyfCojYARyBEBEkCArEJbqiIM0geV4WjMCRuCBCICIWDJpoc1+bpvAHjhZPpURMAI5AkxG3AZxhWS7tk1gOZ7WjIAReCACSkisXyOviDWBPXCyfCojYARyBJiwjrRNYDme1oyAEXggAkdIi/uYwB44WT6VETACOQJMRkfaJrAcT2tGwAg8EIEjpMV9TGAPnCyfyggYgRwBJqMj7f8H/oxdJ8tt8uoAAAAASUVORK5CYII=;" vertex="1" parent="ueiQc-Kc5k36oUlTbui3-1"><mxGeometry width="304" height="160" as="geometry"/></mxCell><mxCell id="u9_FV-DW1UaYwI0sYwS_-2" value="" style="shape=image;verticalLabelPosition=bottom;labelBackgroundColor=#ffffff;verticalAlign=top;aspect=fixed;imageAspect=0;image=data:image/png,iVBORw0KGgoAAAANSUhEUgAAATAAAACgCAYAAACL6jAEAAAOWUlEQVR4Ae2d3XGjzBKGHcQXjQLSvbM4VbpxDs7BN85ibzeBzYJTA7yjphkQsi2Lph9Xbc1fTzP9tHhrQGh56fiDAAQgEJTAS9B1s2wIQAACHQLGhwACEAhLAAELmzoWDgEIIGB8BiAAgbAEELCwqWPhEIAAAsZnAAIQCEsAAQubOhYOAQggYHwGIACBsAQQsLCpY+EQgAACxmcAAhAISwABC5s6Fg4BCCBgfAYgAIGwBBCwsKlj4RCAAALGZwACEAhLAAELmzoWDgEIIGB8BiAAgbAEELCwqWPhEIAAAsZnAAIQCEsAAQubOhYOAQggYHwGIACBsAQQsLCpY+EQgAACxmcAAhAISwABC5s6Fg4BCCBgfAYgAIGwBPYpYH/futPLS/dyeuv+ttB+nLuXMn7+aI3e3fff//7ryr/yp3qrXHIs21vj1s7Wl+bZ9bRstvpozaUPAkcg8EAB++jORWQW/q1qzw4EbCm5Eo2t5Vf8lDm3/FubpWPQD4GjE3iggF3R/X073bdj+iUBuyUSdlzRqE/tUqpPpe2zdqov2bX61VdK/dk+269xSghkIfA8AZNImR3a6W28YNTY6dydT9ddXB33l5Cyl6+6vdMu8Ny1Lja9ENj22gfA2klA1Ffm2bptb+23x/Zzto5ZO+oQOCqB5wrYTGhOXa9hVZDGdve3e+uFbGxbAZPt6Eu7vUHsvi5gEg6V9gOgPl+2bGyf6nbeUp+1adXLPPXLByUEshF4noA50h/nYafV65BEydzEnwiTEbDJvOLTjLlDzJoSgFY5M2502HkaVp/attTYUmltVZet2qVUn0o7Rh0CmQg8VcAkPvZG/1cFzPro60b8lhIqAdhaWj+35lhb1TVHbZW3+reMyxclBDIReJqASbx0X0vtrwrYeAV5V+4kDFtKOba2vk/tpdLObdX9vJZNq8/Pow2BLASeLmCD8Oge10vXFjB3L8teJjYuN7vS1zty81xWvRiUYfX5upu6amd92Hn39MtWpfWj+tqYbCghcGQCTxOwXmT0reHLqTuN3zZOBKyOl/tjuqHfuM8lEbP2GwRMibVCoLovZatS46Vt6622nyN7X8rOlrKxfaqvjcmGEgJHJvArArZ3gFYIVC+l/tSndinVt1Yu2dt+72tpzPfbea0x+iCQgQACliHLxAiBgxJAwA6aWMKCQAYCCFiGLBMjBA5KAAE7aGIJCwIZCCBgGbJMjBA4KAEE7KCJJSwIZCCAgGXIMjFC4KAEELCDJpawIJCBAAKWIcvECIGDEkDADppYwoJABgIIWIYsEyMEDkoAATtoYgkLAhkIIGAZskyMEDgoAQTsoIklLAhkIICAZcgyMULgoAQQsIMmlrAgkIEAApYhy8QIgYMS2LeA2f/7/qAJICwIQODrBH5FwPROx+urz9pvyp6FgYDNkNABAQhcCTxcwPS6tJf+JRvlwOMbiGr7uphZDQGbIaEDAhC4EnisgEmAXvyO66M7VwHTq8+GN3Mvvn1Ibx6qL6zVq9jGtxXpWOdzd9bbiYqt5pU+HVN9p3N3Ht+GVHaHekdlwVOFV776uVqrj+cKlBoEIPB7BB4qYPXSUcLh46pC8tb97ceWROmjq69huyVgo1hWAertnV8dt76qbSpMWncVtGKPgPns0YbA0wk8VMCqiCwI2EwoygXm26mru6G6q7pDwMZjTfzoslWCJQFbEMO67jr+9DyxAAhAoEHgoQImEamXbm4BGq87nTJuRcvWb4jOZJ4XwipgS2/+Xtqh6bJ2ennpwqAJAQg8icBDBayKysI9sJaATfqeJWAmGezGDAyqENgZgccKmL0ZXi8jx92OvadUL9XcTsgKWDe9T9XVtr+J/9EjngjhnTuwj/Pos3jSzs+udybIO8sqy4FAEgIPF7DCUWLSfg5MwqTLNSMeEwHzfk7dqf8G8RECprWMZRVYrZVvIZOcH4S5cwK/ImA7Z8DyIACBoAQQsKCJY9kQgEDXIWB8CiAAgbAEELCwqWPhEIDAbgXsesPf3VDXT3vG0qbwK3M0388t/a0+b6+2tbd9u6z/++wul8/u3w8s7t/npXt9fe/+fMvXn+799bW7fP7Eir61ECYHI7BbAfMcJSa+f2t7ab76VVp/6lN5a6xlZ+fspv5TAlb8TMTrX/d5ee1eX6f/3qu6DUI1jHvRK2OXblHD+mNZv2b+0joun7tBzkIeQ2CXAiYh2FreQiM/a3YtG/Wp1HzbXqrLdpflDwnYn3e/axoE7CpYNno39ue9e3WG/W7O9VUPTqR6W+0i3VhZl/dd/VA5FIFdC1ghLYHwpR1byoid07Kx41vq8iFbuwb12VL2XyvdCV+clJP+8tn96S/brruReuk1CtNnOYHrzsjtispJP7Erttedz3BJuMV3a8fUWHMNvtiv7Zr6AKc2dW7XdU6kJm0zNhE2O5/6IQnsUsAKaSsEa/W1rGjeFhvZqvRrkA+N29KPqf3t0u1S5jsendijAPUn8mtnNzHN3Yi3G4Vxdgeqt1vwXca0A6qBOrF8NWvpfd0SsDL/KqbVbamszdfYUhwTRzSORGD3AibYEoxbbdndKoufWzZ+fOnYt/o1fn9pdy2tHU/xaE76majY+ebo3s63q+mKbyeudYqtFBvt7iQydbwdTxFcK8DV3M2fCHM/Nu4aZ6JaPVA5IIHdC5gXEd9ey4lst9jIVmWZo7pK+VF7S6k5Xy3rCe12F9NLPbNLsiewO+nrGkq/tzPtTb63CFgvrqMg+bX49ri4Gm9d7Fjp7a+XtuVSuu4Yq68iiv6+nHdE+0gEdi9ggi2xWGqr35Z+jh0rdY1vLTVf9mqrXOrX+JfKUSiKqNSdSb+z0eXYyi6pntjuyKXfC4Da9/jWHOf+2hwEZVi32w0212ZiuToZak370ciO9fWFXZz3STs8gd0LmERhqVzLgOas2WisZas+lWu2Zczbyf575XCpdblIsMrtoMv1W7b+hF3YgY07oNk3cmWOFR/T3u57WNfksQe3K+t91eMUcTLC4mwHRk7kLLg+zisDO+Tvj/XHtV8YTIxpHInAbgXMQ26JQ6vPzrs13rLVHFtau1LX2NZ+b3dve3K/p59cTnTd83nv3nXj2wjR9RiDcNRns8p2yNtN2tt9l3XVb0DLAXuRMZd5MxExvmdjTpivAQy13vc2ASsTemav794L7YMR2KWASSCOUh7sM3MNZ01UrlYba0XcFr6B3OgBs3wEdilg+dIQN+KfuVwbdmaT3VxcJKz8FwkgYL8Im0NBAAI/SyCMgJXLyXv+li4/7/FxWNvJPa/vRckO7Hv8mP09AvepwveOtXn2kvi0+otT368+HbCM82cI/JSAze6BuS8Mxi8a6uMf3dpNfO6BmQxR3Uhgl2d2S3DUp7LEt1TXWBn3/zZyObbZDwnY7FtI++DqjODtxyj63dxV7WYe6ICAJ7BLASuLlDiptH2+fqttfRTbGH/uhC+LLs9OZf0xd4ykscpfJhBGwFoiZPtKXf8KQ9V9+ct8v3c497DnfMejZ6/Mg6z2B9R6HsrvavpLP/dQaX3g1Cy5t1vw3dzFzS8h66F7X+Y5Lt/uD1vm8yiFyQDVGwR2K2BatwRI7VKWPvtnbTSmsmVv5+67Xu4L6aRfukdkTvqZqNj5JlJv59vVdMW3E9c6xVaKjZ7tmglWO54i0lX0rC/qEGgQmCpBw+CZXRIhCZQt/bqsbRmztrbu5+29XU/o8fJRP2Aevv3TU+9ml2R3UjPRGKP1guXam3xvETB7T8yvxbfHpdV4954Y1rcLArsUMAmOJSSBsn22rnGVdkz1tTHZ7K4chaKISt2Z9Dsb7cxWdkkLIrH6U6J7fFuxbIIruyztqNxusLk2E0vTH50QmBLYpYBpiVZwbL2ML7XV3yrVJ/8xyuFSK/2PuWMki1X+MoFDCVgRKImULwtX9f0y428frlxWTf9HiWFn0/9A+5Lkx9zfpoiDIxLYvYBJlFrl1oRo7lZ77DYSaF4Gbpw7Mxt2mpP/nmdmQwcEpgR2LWDTpdLaI4Hhhr/ux311hcOOkh9zf5Vf3nkIWN7cEzkEwhNAwMKnkAAgkJcAApY390QOgfAEELDwKSQACOQlgIDlzT2RQyA8AQQsfAoJAAJ5CSBgeXNP5BAITwABC59CAoBAXgIIWN7cEzkEwhNAwMKnkAAgkJcAApY390QOgfAEELDwKSQACOQlgIDlzT2RQyA8AQQsfAoJAAJ5CSBgeXNP5BAITwABC59CAoBAXgIIWN7cEzkEwhNAwMKnkAAgkJcAApY390QOgfAEELDwKSQACOQlgIDlzT2RQyA8AQQsfAoJAAJ5CSBgeXNP5BAITwABC59CAoBAXgIIWN7cEzkEwhNAwMKnkAAgkJcAApY390QOgfAEELDwKSQACOQlgIDlzT2RQyA8AQQsfAoJAAJ5CSBgeXNP5BAITwABC59CAoBAXgIIWN7cEzkEwhNAwMKnkAAgkJcAApY390QOgfAEELDwKSQACOQlgIDlzT2RQyA8AQQsfAoJAAJ5CSBgeXNP5BAITwABC59CAoBAXgIIWN7cEzkEwhNAwMKnkAAgkJcAApY390QOgfAEELDwKSQACOQlgIDlzT2RQyA8AQQsfAoJAAJ5CSBgeXNP5BAITwABC59CAoBAXgIIWN7cEzkEwhNAwMKnkAAgkJcAApY390QOgfAEELDwKSQACOQlgIDlzT2RQyA8AQQsfAoJAAJ5CSBgeXNP5BAITwABC59CAoBAXgIIWN7cEzkEwhNAwMKnkAAgkJcAApY390QOgfAEELDwKSQACOQlgIDlzT2RQyA8AQQsfAoJAAJ5CSBgeXNP5BAITwABC59CAoBAXgIIWN7cEzkEwhNAwMKnkAAgkJcAApY390QOgfAEELDwKSQACOQl8H/WzsZrR7FOPgAAAABJRU5ErkJggg==;" vertex="1" parent="ueiQc-Kc5k36oUlTbui3-1"><mxGeometry y="170" width="304" height="160" as="geometry"/></mxCell><mxCell id="u9_FV-DW1UaYwI0sYwS_-3" value="" style="shape=image;verticalLabelPosition=bottom;labelBackgroundColor=#ffffff;verticalAlign=top;aspect=fixed;imageAspect=0;image=data:image/png,iVBORw0KGgoAAAANSUhEUgAAATAAAACgCAYAAACL6jAEAAAUdElEQVR4Ae1dT46jPhfsQ/xO06eZVfZ9i0/qTd+hpTlCb/oWs50LzHJuwKcHlCkeNhDwENupSNH7/zDlpGQIkJdOLyEgBITAgxD4+/dvd+b98qBxa7NCQAgIgVPkZcQnAtOHSAgIgYchcGb1JQJ72LRpw0JACBgCIjB9DoSAEKgWARFYtVOngQsBISAC02dACAiBahFYI7AfP35sHmLqJH61U6+BC4H6EUgRmJEX3qkc84vA6v8MaA+EQLUIxMgJxMUylicCq3baNXAh0AYCnpg8aXnb52sF1sbnQHshBKpEwBMSCIv9MR/iIrAqp12DFgJtIAAigjSygs4y5ReBtfE50F4IgSoRYJI6oovAqpx2DVoItIHAEdLiGhFYG58D7YUQqBIBJqMjugisymnXoIVAGwgcIS2uEYG18TnQXgiBKhFgMjqii8CqnHYNWgi0gcDPnz+7o28jPBFYG58D7YUQqBKBo+RldSKwKqdcgxYC7SAgAmtnLrUnQuDpEBCBPd2Ua4eFQDsIiMDamUvtiRB4OgREYE835dphIdAOAiKwduZSeyIEng6BNgns90f3+vLSvbx+dL9jU/p1614sfvuKRQ/7/vvffx2/1xpxXkznWh+3GHycF9PX8tZisV7yCYHSECiYwL66m5FM4r3KPQ8gME8G3vYTn4qn/Kl65LO0XLZjOuf43rKFQC0IFExgE4S/P17vWzFdTGAxgmDftCeTxvGYPmUuNeRbZEtH3CRe7GM/4pJCoBYE6iUwkBSt0F4/xgNGxF5v3e11WsWFuD+ERD56heUdVoG3LnawyUSQmvA9Oala+LkHE07KjzqTyGEf9LUYciSFQMkI1E1gC6J57XoOC4Q02t3v7qMnstFmAkPu2AurvYHs1gnMJhYksCX5Q7CVizjXsI64Sby8j+2YbnXwo4ekEKgNgXoJzCH9dRtWWj0PgZToJP6MmIjAZnXWk2JuE1ETJLAluRi57GM9FYc/JbkHdOTCNgkfJMekC4GaEKiawEA+fKL/KIFxj14n8lubUJDAluQeW7mIc43pR/1bdRbXSwjUiEC1BAbywnkt2EcJbDyCPDSHWwThm6bykZeKw5+SqIdM5Xk/8iWFQG0IVE9gA/HgHNdLFycwdy6LDxMjh5ud+fpGri4xu54QvO3LfDxlp+r2+H1PX2M2cmIx+YRADQhUS2A9yeBXw5fX7nX8tXFGYCFu58dwQj9yngskxvkHCMxP+BZB+Li3U/2Q56XPNxs598Zi+fIJgdIQqILASgPNjwckkZKc73M4ZjrHOZbyr9VwjHtBR0/YkkKgNgREYLXNmMYrBIRAQEAEFqCQIgSEQG0IiMBqmzGNVwgIgYCACCxAIUUICIHaEBCB1TZjGq8QEAIBARFYgEKKEBACtSEgAqttxjReISAEAgIisACFFCEgBGpDQARW24xpvEJACAQERGABCilCQAjUhoAIrLYZ03iFgBAICIjAAhRShIAQqA0BEVhtM6bxCgEhEBAQgQUopAgBIVAbAiKw2mZM4xUCQiAgIAILUEgRAkKgNgREYLXNmMYrBIRAQKBtAuNn34ddliIEhEArCFRBYPhPx+mvz+L/lL2YFBHYAhI5hEBLCBRPYPi7tJf+TzYM+vEfiIK9Mh0isBVwFBIC9SNQNoGBgF78iuuruwUCw1+fDf/Mnfz3IfzzUPjDWvwV2/hvRdjW7dbd8O9Elos682Gb8L3eutv4b0i2OsR/VNrHIhAvevW1GKvfn/o/SNoDIfAIBIomsHDoCOLwCAUi+eh+97EUKX114W/YtghsJMtAQH2+64vthr9qmxMTxh0IzfJFYH72ZAuB0wgUTWCBRBIEtiAKO8D8eO3Caiisqu4gsHFbsz44bAVhgcASZBjGHeKn50kNhIAQiCBQNIGBRMKhm9sBxMNKx+JMWqxvkM6szhNhILDUP3+nVmg4rJ0fXrrdkCkEhMBBBIomsEAqiXNgMQKb+R5FYDQZWo0RGFKFQGYEyiYwPhkeDiPH1Q6fUwqHam4lxATWzc9TdcH2J/G/eohnRHjnCuzrNva0Tlj58XgXhJx5VtVOCDwJAsUTmM0DyCR+HRiICYdrRB4zAvN9XrvX/hfEf0FgGMsoA8FirPoV8km+X9rNf4xAFQT2jzFQeyEgBCpFQARW6cRp2EJACHSdCEyfAiEgBKpFQARW7dRp4EJACDRLYNMJf3dCHbf2jJI/AkdqUO9rzR/z+XzYnM++IvU/3937+3f3J8Pg/ny/d29vn92vU71+dZ9vb937d44RnRqIii9GoFkC8ziCTLx/r52qhx+S+8EHuRWL5XFNMXouArM+M/L6032/v3Vvb/P3Z2C3gaiGuCc9i713SQ7rt8V9qT41jvfvYiDXQOIINElgIIK9Mg7N5EWfybPUYjnwQaKK7ZSO3CJlJgL79elXTQOBTYTFe+9ivz67N5fYr+acL3RwJNXnYhXpYjYu3zv0kVIUAk0TmCENgvCSY6kZ4ZpYDsf36OiBXB4DfCyRf0y6L7w1sS/9+3f3qz9sm1Yj4dBrJKZv+wKHlZFbFdmXfpZnudPKZzgk3NM7tmKKjDnsvOWvrZr6HZznhNqu6xxJzWyKzYiN66UXiUCTBGZIMxGs6Wuzgro9OciF9GNAD8RZ+hjs09KtUpYrHnyxRwLqv8hvHS9ioqsRnzcS4+IMVJ+X6G0xrIDCjjqyfKOx9L22CMzqJzINbU1Zq0cstR+zRjJKQqB5AgPYIIwtG3lb0vps5fh4attbfsTvl7xqia14rCN96RekwvW0dZ/n7ZC60tuRayhhxXKwugPJhHh8f4xwmYBDuqufEXMfG1eNC1INHaQUiEDzBOZJxNtrc4LcPTnIhbQa6JDoA3uPRM1RGb7QbnUxP9SjVRJ/gd2XPozB/D6P7F299xBYT64jIfmxeHscXNjfMNhR6fOnQ1s7lA4rxtDLSNGfl/ONZJeEQPMEBrBBFikbfpa+hmOmI75Xoh75sCFTfsQPyZEojFTCyqRf2eBwbGWVFL7Ybsvm9wQA+57eqHHtJ3MglGHcbjUYHRvty9Rk0KL5YxLHej2xivM9ZT8cgeYJDKSQkmszgJq1HMRiufBBruVazOch/5wcDrXe30FYdjroffqVrf/CJlZg4wpo8Yuc1TD5kL2/9zCu2WUPblXW9wrbMXIiYnG5A0aO5Bi4fj8nDDjkz4/12+UfDGbJMkpCoFkC8yDHyCHm47qteCwXNSw5z3TE9vp93r327HxPX2xfdJzz+ew+ceKbiGjaxkAc4dosWw75vJm9v7eNK/wCahvsSYYO8xYkQr0XMUfM0w4MWt97H4FZQY/Z26fvIrswBJokMBBEK7Kwz0y+4ayRyt1bMXJL/AJ5dy8V1IJAkwRWC/ga57hqiqym7sNmWJnNVnP3NVB2pQiIwCqdOA1bCAiBJ3mcDh9Krk0653l9q24tjhh6wjYJHyTHitVn57zOjTLPCXOtwM7NQr3Vza/AjBj45e09sbUaqwf5sPR9EYvlI3drO8h7uMxFYItzYO4Hg/GHhnD5R7d2El/nwB7+uXjAAJomMBACyIPtGNac5/VYvvmQx3Fsh33IjUn2+Zoi7UwEtvgVki9cXez49mUUs0s4FvVytIhAkwQWIxU/eXtyfI23Yz1i5IU8SOuDPEjf+7ztvvDW0K6detabuc8Dqg4FItAkgRnOIIs1yfOxloeYz4dtcXtBwu8l4ujnpc8/bbuLPZcrHlx7RRey8g3UuB5qOoYbhtQf+rmLSsMFpzTqPi/RO7qKWx5Chk33veg6Lm/3m7V6XUpBM9C82jSB2ewxacRszDDyYHu5FgcR+Rq2kQOJGPpCwp9H2nkhfOlT54joS78gFa6nEfk8b4fUld6OXEMJK5aDa7sWhBXfHyPpQHrcS3qTCDRNYCCLlOQZTeWwn/NN51hM53zE1+o4P5cevtDj4SNuYB5+/cNV77RK4pXUgjTGUXnCcvau3nsIjM+J+bF4exxa2N9cAKpP0Qg0S2CGupFG7BXzx3xcy3HTYUNyrunsh+4l5yHm+5y2R6IwUgkrk35lg5XZyiopQRKrtxLd05vJMrqjtsrCisqtBqNjo32J9pOzNQSaJzAjhtjbT2Qsx/t8jdmWE3vF/L5fzI71OucbDrWe/mbucyCqulAEmiewGO4xckGej3kbeZAxEoIPOZDoBQm/yZiP42d0O6yaP1FiWNn0N2i/P8nN3GcAVG2xCDRPYCATL3lGOMZ+6IjDZmmx2Cvmhw8SdWZ7H2JNy+hh4NE9Hlaas8fzHG2lumoQaJrAqpmFJx7ocMIf5+OOAjGsKHUz91H86q0TgdU7dxq5EHh6BERgT/8REABCoF4EnoLAcI5p6zwT53mdp9jH0DflR20qD/FqpJ272rwEYt/e6BByH07KiiPQPIGBNLD73obfZCqW8nMt66l8+CHXtsn9itNzEdjiJL5dx4WLaycZrl/T0yiK+yg8ekBNExiIwiTeBjj8HnzkxCTnpuIpP28zlgMfb6NoPROB2eUd8xPvA4FNhMUouFjkSv5+NRcv5kbSG0KgSQLbQwh7clLzbLX8gg2JGNum452Kw59Hui+8NbUvvZ5GkQdedSkCgSYJzJAFWaxJnoG1PMSQbza/YCOPpeXBZh0+ltwzi+5WKcsVj55GkQVnNXkYAk0TmKFqBLEmgTzyYHvJcSYd6LwN1Poa+LdyOe+cbtdH4Rqr1IWetlJL3Mzdn3NCPY3EH0J6O6Su9HbkGkpYsRw9jYIRke4QaJrAQC4pyVikctiPfPPxCzbnQkeezzE/+5CXW4anM4yHj3oaRW6E1e+RCDRLYAYqCMIDHPPHfFzn47AhY9vbE7MczuNtZtHHlY6eRpEFTTUpDIHmCQwE4aWfBx+P2VxjcXshj3X4kIMYJPzIg99k/tdw6KinUeRHVh0fj0DzBBaDGASyJxbLBfGkYtbXx1I2+1mPje2oT0+jOIqc6kpHoHkCM1KIvXliOM5+6IjDjslYjvnwgs55rCPvqeTiQtYze5/6keJMT9WWjkDTBFY6+Bpf1+lWIn0KziAgAjuDnmqFgBB4KAJPRWA4ZINk5M3HL9heWg7qIX1dzM85sR57anyPh9nJ677uH5FWYPdjpooJgWYJDITActrtpWZ5eEH3tez3uSnb/NxnTw/0KlbmIrDFObDh9qf+Uddvupm72PkvaGDNEpjHGMTh/WYzwSCOfC99PtfGdN+P7bV85BUpMxHY8tamyP2bAQAXi1zJr5u5A1hPozRLYDFy8D6eZYvhBZ3zLQY/8iDZv0f3vbgGPc9L94W3huPV+L++3zte5YQnQozE9G1/AhJuQXKrInsO2CzPcqd/wx4OCafVU7p37FfDyJgDEJZPtzUtVm/9Ds5zQq2UVhFolsD8hG2RhMWRAz0mre9eP4+Ba1I9LCfry61Slise3cydFW81uxwBERgRUgx9kAokcthO6ZyLHC8tBz7k55O8aomteGxLturRzdz5MFenKxFoksCMEPa+DWzksg6flz4Htkl7cf7oCn7EITkXOtfk0HUzdw4U1aNUBJoksBjYRhBrL45v6YhvSd6ez+UYdOTAziJ1M3cWGNWkTAREYOO8MHmYDttLnkYf8/Y9uVaLeq47rw+HjrqZ+zyS6lAeAiKwcU5AHl5aOOaL+X0ebOSaDZ+XyDGZ+6WbuXMjqn6lINA8gYE0QBgp4GNx1FpNTPc+9Ibf5J4X8vfkNpUTvRTi6B6mfqQ42k91NSDQPIHVMAnPPEbdSvTMs39+30Vg5zFUByEgBB6EgAjsQcBrs0JACJxH4GkIbOt8FMdZN4i9nfKt+VOxWG/LLfo13kqEPwg5M1YdQp5BT7VNEpiRwt43fwSYTKBDcp7p7E/pazWIcS18xctcBLY4ie/uuxyfSDH92badqMd9lnRfZA+YTuIX/7n5BwNslsAYqxRJrPkt5t+pntwHOmpTNfAjH3YVMhOBLe/NXLuZ28XcfZ6Gm55GUcWnJ+sg//79251577tOIOuQ9zUDgaxJdOIc+EymyIXzoaOObdTDB8m9kYP6fNJ94a2xnkaRD151KgKBM+RltcUSGND1BOFt5Jn0MW+nci2P38jz9WxD5zr4UH9aulXKcsWjp1GcxlgNHopA0wSWIoSYHz6Ta2/Mls/3frORsxbzOcjNI+28EM4Vpc4R2UpNT6PIg7e6XI1AkwS2RkA+ZoCzjydgjVw4FtPZh57sgw6JnNxST6PIjaj6lYRAkwQGgJkcUjpyTcZy2OdzLYY3YsiHhB/94feS87LqehpFVjjVrCwEmicwIwq8AT3IAzYk/JDsZ5/p3kZuTPp8y0E9ZKwuj284dNTTKPKgqS5lIdA0gaWgjpEGfJC+NuW3vFQs5eeatRw/hqO2nkZxFDnVlY7AUxGYkQXePDGeRJATk1wHPZYHH3Ig4U9J5D2FXFzIemavUz9SnOmp2tIReCoCK30ynnF8upXoGWc93z6LwPJhqU5CQAhcjIAI7GLAtTkhIATyISACy4elOgkBIXAxAiKwiwHX5oSAEMiHgAgsH5bqJASEwMUIiMAuBlybEwJCIB8CIrB8WKqTEBACFyMgArsYcG1OCAiBfAiIwPJhqU5CQAhcjIAI7GLAtTkhIATyISACy4elOgkBIXAxAiKwiwHX5oSAEMiHgAgsH5bqJASEwMUIiMAuBlybEwJCIB8CIrB8WKqTEBACFyMgArsYcG1OCAiBfAiIwPJhqU5CQAhcjIAnsB8/fkT/qTvlL/6PbS/GU5sTAkLgQgRiBObJymzvQ50I7MLJ0qaEgBCYIwAiggRZgbC8jTxIEdgcT1lCQAhciACIiCWTFnSOsy4Cu3CytCkhIATmCDAZsQ7iMsl+r4vA5njKEgJC4EIEPCGxvUVelisCu3CytCkhIATmCDBhHdFFYHM8ZQkBIXAhAkdIi2tEYBdOljYlBITAHAEmoyO6CGyOpywhIAQuROAIaXGNCOzCydKmhIAQmCPAZHRE/z/+CW3Lgjry6wAAAABJRU5ErkJggg==;" vertex="1" parent="ueiQc-Kc5k36oUlTbui3-1"><mxGeometry x="330" y="-10" width="304" height="160" as="geometry"/></mxCell><mxCell id="u9_FV-DW1UaYwI0sYwS_-4" value="" style="shape=image;verticalLabelPosition=bottom;labelBackgroundColor=#ffffff;verticalAlign=top;aspect=fixed;imageAspect=0;image=data:image/png,iVBORw0KGgoAAAANSUhEUgAAATAAAACgCAYAAACL6jAEAAAXrUlEQVR4Ae2dzXHjPLOFFcQXjaKZlfbO4lZp4xxc9YbgjbOYrROY5WSAWw3ygI1mA6QoakyAx1Wqxk+jCR7ITzX/xEvgHxWgAlTghxT4+/dveOZz+aF5c7NUgApQgafgJeAjwPglogJU4McUeCb7IsB+bNm4YSpABUQBAozfAypABZpVgABrduk4cSpABQgwfgeoABVoVoEawH79+rV4iMmT+M0uPSdOBdpXoAQwgRc+JR9pJ8Da/w5wD6hAswp4cAK4tPX8CLBml50TpwJ9KGDBZKFl69afGVgf3wPuBRVoUgELJABLt3tt6CfAmlx2TpoK9KEAQAQrsEJZ21I7AdbH94B7QQWaVEBDakuZAGty2TlpKtCHAlugpccQYH18D7gXVKBJBTSMtpQJsCaXnZOmAn0osAVaegwB1sf3gHtBBZpUQMNoS5kAa3LZOWkq0IcC//33X9j6EeARYH18D7gXVKBJBbbCS8YRYE0uOSdNBfpRgADrZy25J1TgdAoQYKdbcu4wFehHAQKsn7XknlCB0ylAgJ1uybnDVKAfBQiwftaSe0IFTqdAnwD7fg/XyyVcru/h21vSz1u4SP/t0+t9uO1///e/IB/vz+tD25JFPOsn7WiDT8nW/Gp9pXhspwJHUuDAAPsMN4FM4VNlzz8GmCyohgHK1mLh0a7HeW3w9yz8PevFtX7ax4vPNirQggIHBtgk3/f79bGM6R8BzEJB12X2qE97MpTQvmTtONQxTupLZfSLxZ9u0+3op6UCrSjQLsAAKZWhXd/HA0b0XW/hdp2yuNRvDyHhj1gpvUMWeAtbDjYBCu/LgL6S1WOsD/pK7egXCx/dhnKtDz60VODICrQNsBloriEyLAFprIfv8B5BNtY1wOA7xkK2N8BuGWCAgLZYcLShrq3uK5W1vy7DXyz+bJuue2UZh3bEoKUCrSnQLsCM0p+3IdOKHAKU1En8DEwKYNk4ian6zCYertYAgb6S9TZW8kV7bYzugz+s7mOZCrSkQNMAA3z0if6tANMxYlnBr7aggIC28Ecb6trqvlJZ+0tZ++m+pfY1/Toey1SgFQWaBRjghfNaqG8F2HgEueu6lcAhG0FfyXoTKfmi3Y5B+5K141inAq0o0DzABvDgHNcl+AAz57L0YaJzuBmkLQYy45xV9eAAN/ShXrLP+nnj0QbrbbvW5/mzjQocTYFmARYhg6uGl2u4jlcbM4Clfjk/hhP6znkuQEz7PwgwWVgLBFvXPuhbsvoL84gvxmEM6trW+rQfy1TgqAo0AbCjiifzAgS0te1L88fYmh98xNq/NX12jNQxzutjGxVoQQECrIVV4hypABVwFSDAXFnYSAWoQAsKEGAtrBLnSAWogKsAAebKwkYqQAVaUIAAa2GVOEcqQAVcBQgwVxY2UgEq0IICBFgLq8Q5UgEq4CpAgLmysJEKUIEWFCDAWlglzpEKUAFXAQLMlYWNVIAKtKAAAdbCKnGOVIAKuAoQYK4sbKQCVKAFBQiwFlaJc6QCVMBVgABzZWEjFaACLShAgLWwSpwjFaACrgIEmCsLG6kAFWhBAQKshVXiHKkAFXAV6Btg+rfv3d1nIxWgAi0r0ATA8E7H6dVnK9+UTYC1/N3k3KnAogKHBxhel3aJL9mQ/RnfQJTqlX0kwCrisIsKtK/AsQEGAF1sxvUZbglgePXZ8Gbu4tuH8Oah9MJavIptfFsRtnW7hRveTiS+GCdt2CbarrdwG9+GJNkh3lEpX4sEXsSKYzFXuz/tf5G4B1TgJxQ4NMDSoSPAYRVKIHkP37GvBKXPkF7DtgSwEZYJQNHfxMV206vacjBh3glo4k+A2dVjnQo8rcChAZYgUgDYDBRygPl+DSkbSlnVAwAbt5XFwWErgAWAFWCY5p36n14nBqACVMBR4NAAA0TSoZvZAfSnTEf6NbR0eQE62TgLwgSw0pu/SxkaDmvzw0uzG6xSASqwUYFDAyxBpXAOzANY1vZTAFOLwWxMicEiFdhZgWMDTJ8MT4eRY7ajzymlQzWTCWmAhfw8VUh1exL/M0qcgfDBDOzzNsaUSMj89HxnQN55VRmOCpxEgcMDTNYBMPHvAwOYcLim4JEBzMa5hmu8gvgKgGEuo02AxVx5FfIk/1/czRcr0ATAXqwBw1MBKtCoAgRYowvHaVMBKhACAcZvARWgAs0qQIA1u3ScOBWgAl0DDCf9vWX2+tC2ZL14Z2n783UPb28f4fdTO/w7fLy9hfvXn6eicDAV6BpgsryAkS6jDRZfA11HGVaPh3+6xwvPO8bbI3ClMb8Smd1siwA/Yf98hfv9K9TR8Sd83e9hxhcZ68JLgFSCWqlP2p1tzDSRubyFNzvn3x/h7e1t/DjbjnNFv1jlM9uPaRuzzbPh0Ap0CTBAx7OyGmi3K4P2JavHpVs8ZrdKTLdzJNCle9l0hCOWfYD9/phnTdI2gEQBYtylWp+4xGzuYyGXi8C9h7sHuxmIlJamL24LEDR9cZ5L81ChWTyOAl0CbEleAMrzQ1/J2jFrAJZ+AugyPopkg/zLegTCV/gz2q8EIGRDYzaSshtkP7WMqZRlyY5t7RtEEfDIoaYHz2BAlMlo+3RdlTOwZQFYaUGBbgHmAQgLgj7UtdV9pbL2Xwcw9fM6P52FyT+vZCLxn/gtpMRDDsmQoQQnA8M4vfOpvBVSznZSTCmofm/7cR/mmV8MYft0HeVsn7MNs9KIAt0CrKa/BpP1Q1/JWv+1AEt+RwJYAlY8nlPnxhQ4sMPyz55oh0bYrQALMbMqhhXQpDk6cwKIMA1tTV92mBj7xkPfFF8PZrkVBboFmAcgLAr6UNdW95XK2j+BqXIOTPxxHuzHT+YDCrDYmazuwOIHABYP7/ShrL1yGUFUy8Bwfg6HwePOpnEC3vl5PUhCe3wFugVYTXoNJuuHvpK1/usAhofMj3cOLF2NXAJY1m9V2JqBOaBMoZ0+O4cEojRoKqzti37qUHqKwFIDCnQLMA9AWA/0oV6ya/zWAAzZV+l3zUrbf0k7IACLjZi6HHLlh3YCKZzoxyDYrQCrjDPzGbZk5iA++vYITEfsA31DplfI5HRMlg+nQPcAE8UtiGxd+6BvycqYBKYW7wOzgPDqOHwbzxN5VwLjuSX4mcOxWp/oF8GRU1Ka41+pL81BDmnTdh34PAAw2eAw149x6zStKNAlwJbgc4T+Vr4g2TxrUMgc11RMNrVmCH2ogFGgS4CZfWR1RwX2OdwSePHk+Y7LctpQBNhpl547TgXaV+A0AMNh45olg6+1a8b27sMMrPcVbmv/ugSYBc9S3S4Z/NFu62hv+iQ+dsK1zi0M4lc8B1a5mlh8lIjnwFzp2fiQAl0CTCtg4WPr2hdl62Pr8BPb3G0UevLFsg+wdAVQjZuuNM6vBNb6JETpSqMKzyIVqCrQLcAAnTXWKoQxaLd1tItdAzA+zD2H26BhLXPTKrNMBXwFugeY7DYABAspbN22ox8W/dquA5i6Z+xIz0K+qZtVswebnQzM3iemRSgeJopTDVLOdrK4rFCBugLdA0zDB2Vr6xLVe9cCLPkdCWD6QeYMUA5YfuBZyLry7KUCHb/UQ0OqtNDwkX6U11rETGDiw9yFn5muZWALv0YBkWmpQEGB02RgFkyiB9psWde1j26XsvytAxgf5vZ/d9XJ9EZdaajAGgVOAzCIoYFUKosv+mC98dK2BmDpdoufPnyUCeNQERY7ZupyBTF/TLF220Mty9rah4nRUoGyAqcBGEAEK5KUyrpP++h2KScw8WHu9GC1ftPQdBvF8Ltcuk/0420UogL/nlGge4B54gBKsOKD8lrrxe2+TbK00s/XPLzztYzu4WAccFIFugXYSdfz5bvNR4leLjE38IACBNgDYtGVClCBYylAgB1rPTgbKkAFHlCgW4DtcS4LMR7Q87Wun7fhXN0RrmbaPTVXMW33I3Uepj6i1rl9uweYLC9ABKvbsPzoW2vjuO/3cE1XIC9pO3u+eSjdpiHQOgPAZhcK5F4x9Xah8Wekp1s85GIA+u0zl7xQgO93r7Z7gC0BCQsLP9RLNvNLALuFz9KAPdtPADC59SK/3WIA2AQsLajpcx534q0aWq/+yt0CbMtSAU5LNsWuASzB5hZuyNLkcaM05hLSW4p02+ibsrgUZ48MzPzDy46MD3H//rqne7nkZRkJIuOh4deHZDnIcExWJM9UZn7iO73BaDgkRJZUi+1lTM6c0wKIP+ZU+r0y45PGstCDAl0DbDWIzErqcehCG+rRJvA4GRjAcxn60k2v8ZlJPFp0De/f8Xb+cE3ntT5H4I19iLPXIaTJUuYZD0AwAige0uV35ccbVG1KZP1GMKb3TkK46FeIPUIwH2NgqX9BI8ZaApiMn2CKadD2ocApAGaXyoWROVcmY+AHa+OEBLDp/Nfl4oBHPXI0ZFYGYCYwYBeZtjfAsp+38TIemYz6p59BpZDRWD9bT/tYiW3gmobogvggu7MAi/s2h5UA1/JWh2S5XQVOATAAyNrSslk/qbt/CWCVDGzMrHAyPgfY9KZuQEtv+zUAU78AYbKk/FBPZUn2Z3f0YRuEscAy9VWx1wAswnUEkgWYrY9zI8CwSP3ZUwDMLhsgUWoHsOAHa/2nDOw5gAFeOO+F+qsAFs97ffyOzyKmzCRmNjgcq2RJBUikh8QhkgbYI7E1LBErs5IBIqMy2aA7N7UvWRxWelDgFAADgKytLaD1RT0bs1MGlgEr4PByzM52P4SUPRgOHe93AMs8WB1BUMjAxgzoLZFvVEQDS5pUPbsSWI09zOtLnwQzWVmMlSAncALMxgsSdl7ZIXO2eqx0oEDXAJP1AXjE6npp7Wr+tm/KwPQ5sEuImZQGT/Ec2AipBEKJcw3X6xDvZRlY/F9/CzmEhsxGrkC+3T/CB058KxBNmg3giL7iL9Cwfll9fezZRYUIvOkK5nQlFLNRsZ1D2wyeGELbjQLdAmwGG7VkXp9t03Up8+8fKRCBNWWGz23VyeieC8jRB1OgW4AdTGdO5wEFhhP+z0JsyMzS/WwPbJ+u7ShAgLWzVpwpFaACRoHTAGztYaA9dFwaZ/ttXevtxUab9jtymdnRkVfnfHPrEmCAwhprl1zG6D9bR58XW/pK/rW+2hhsbzebnVwvRS3celA8PyWHa6VDvlIfz0+V1Gf7egW6BJjefQsHW9e+Urb9tg5/tJcs/LQV39JH+/182QfY7AohrmbGX4OYA0z8hyuV8z7ZR14h/PmVbn0G3QKsBArbbhdQ+vWfrUufjYG617cUC2O030vLyMBGOzykrR++NrdIxNsqvsKfwmM6w1xLWZb0bu17qQoM3okCXQMMawQIwdp21MUCRtrqfpQRS1uUEUf76ni1Msa8zGqApTvax5tAsxtEzTOFGOdObCuk/EzP3QQbqYCjQPcAs1ABPEQL3edoU2xCDGt1TC+2biuVixvdqwMggkXcrO6AxdwRj2GD3Qow9VxmHpA1KrBKga4BpiHhqYF+sfYj/rZN+6MfcWt92seLibHwe6kFqGCxsaxOgEEW2mMr0DXARHoPGFgSgAP2kXYvLuLAIh6sbi+V4fsyC1DBYkNZ3QFY1o9BsFszMGc7CElLBVYocAqAaR08cOg28UUdFuN1vVTW4zEObTKm9tH+LysDRLDYkKnPf4JGIGXOi2Hs5hP1NfCl4CxQgaICpwCYhQbUAIRg17ZrP8TWbVK2MdEPu9QPv90tQAWLDXj1eHuEPNwtVyGH81X20ZzpVonhlgndX+uTzfI2CohPu1WBv3//hmc++T0HW2fxgnE1QAA68NF1lGVKKGtr2zF1+KAOP1j0L1k9/nBlgVzxhtVHZ1vL6B6NRf+zKvAMvGTsYQF21gV99X7zUaJXK8z4jyhAgD2iFn2pABU4lAIE2KGWg5OhAlTgEQW6Bpicbyr92T57bkrGeW2Ih/Gwth11beFrrfZptmwvAjyxIzxMfUK8kw3tGmCyloAFylLXH6y39YO/16/79LildrtdXbdxsN1m7F4Aq10oyF4OIsrIfWR4YHyy08/i80JBM9+fjRPtEmAWDKhDIw8W8IEVX5RhMR592qJPfPGny2jTdqlf+x6+vBPA5NYLfStG2u8INoGU/mWLAWATsJJ3KvBWjSRFl4UuAba0UiVwSHvpY2NqP+nTdV3GON0mZfyV2tG/r3X+4SWruX+F31/38advzP1cI5iGX60APEzmI/eJZX4SY7rpdTgknDKkBKhsjMQuZUxoF4s5iDLO/swEs2NmDmxoWIFuAVYDgwaIXjvdXiprfylrP68Of/GDr7Xw+SfWPJTtZjwx21GvVdO/WoHfALNpTxxjXnGWft1C7Vkt9gg0/Va1HFIWRgakZp7DVsVngqmaCYsdKNAtwGprA4BYH0DGs9YXdRvL1q0fYks7yrDwfa3VEJCy98+t/ulnUNHj1Uytn60n10psA1cZkgO2sG3EjufI5vsjMSxvMYS2bQW6BRigAKuXSdq8P91eKss4xIRFLIyBRbseg7K28PPGoW9Pm/6hx8NHZDz5oZ7KwHQmJWDKDuPGmVlgmfqq2DOAzTOs4Rde55AaZjH4W1il/d1TRMY6hALdAqymbgkU0l762HiIASv9KMNijK5LGXWUtcWYl9oRFAKV9M8esxecX6pkSVsA9khsDcuZCAsZWDyHZrMttS+zeGxoXYFuAaahAGBgsWwd7dou+aDfWsRAO+qwaIe17ai/1g6Hjvc7gGUerI6QKmRguHUhkW+cqcm49Ju6Y/YF/2rsYV5fSAlnIhiAmYwtbmcGQDNmFpMNLSvQNcCwMEuwkP61H4mp46EMu7RN7YeytYjxSiuHVW+AStyQ/KOPVwrvH+EDJ74tmKKvObSTONYvq6+PLfNKVylnAhgYRRhOVzfzWyyGwRk8Z/HY0LoCXQNMwIAPFsrW0W4toGLbbb0WDzFgZSz8rbVxT1uPUJoyw+d0EOCVzpc9F5mjj6FAtwA7hrycxRYFYtbkXSh4KNiQ9ZWzuYeC0fmgChBgB10YTosKUIFlBboG2COHbt4hnde2LGnfHsyO+l7f1vbuVACrLY6Fnfh6bTHG502dy7qFz+/3cFXn22Tc7bO2tR/sy06ul+ZRuPWgeH7KnFzPwpb6eH4qk4mVTQp0CTAvc7JtGk6inO0vtSWVI7RuIXJKl8VhBNr1/Tu5t1XwAeZdIYxXM+PVy/mJ91qf6MErhG19K444224BJmIDSigvLQD8PTsbq6Gly3CMWdoIOLQdwSIDG+3wkLZ++NrcIiFwivdW1TKmUpYlO7y17whicQ5HV+BUALNgsosj/fgrldE/ZFmFDCw6fYbb5RoOl4RpgOmHn+Wm0HQTqJOBYVwSQBe2QsrZjg7LMhVYUOBUAFvQImVsFnQaZimGzrp0eXII79cDngsDiGAx36zugMXc9Y5hg90KsOFh7ex+2jwwa1SgqsApAOYBCW1aHQ2qUjn5a2jpcnJoIANLGVc8IRXuqU6ApWVk4dAKnAJgsgIAkrV6daSv9NF+sayhpctwbOQcWHrscCkDy/qxk7BbMzAHlAhJSwVWKNA9wKABwCV1XUa/tYs+Glq6LIFi/YCHjzI3gAgWO27qcgUxP7QTSJUey9kKsNo4TIyWCpQV6BJg2F0NIZStFV9pW/uJsXu4D8wAK4EN4kl/erj7K0imVr+NYnioWj+6M91GMe+TzfA2CohNu1WBUwEM8IJYto52sbU+7XeqcoTa/H6vbRrUMrptETnqfAp0DbDzLefr95iPEr1eY25hvQIE2Hqt6EkFqMDBFCDADrYgnA4VoALrFSDA1mtFTypABQ6mAAF2sAXhdKgAFVivgAXYr1+/gm2Teql9enhw/TbpSQWoABXYRQELKwGVhZXXhnEE2C7LwCBUgApsUQAgggWsADFbhx8sAbZFdY6hAlRgFwUAIm01tFDW/bpMgO2yDAxCBajAFgU0jHQZ4BKr222ZANuiOsdQASqwiwIWSLq+BC/xJcB2WQYGoQJUYIsCGlhbygTYFtU5hgpQgV0U2AItPYYA22UZGIQKUIEtCmgYbSkTYFtU5xgqQAV2UWALtPQYAmyXZWAQKkAFtiigYbSl/P8/CsCVXn+52wAAAABJRU5ErkJggg==;" vertex="1" parent="ueiQc-Kc5k36oUlTbui3-1"><mxGeometry x="340" y="170" width="304" height="160" as="geometry"/></mxCell></root></mxGraphModel></diagram><diagram id="idwUacVmLtZqsLqw0UnG" name="DB Schema"><mxGraphModel dx="761" dy="135" grid="1" gridSize="10" guides="1" tooltips="1" connect="1" arrows="1" fold="1" page="1" pageScale="1" pageWidth="850" pageHeight="1100" math="0" shadow="0"><root><mxCell id="m08e3T5ZIrb4oYMcNouh-0"/><mxCell id="m08e3T5ZIrb4oYMcNouh-1" parent="m08e3T5ZIrb4oYMcNouh-0"/></root></mxGraphModel></diagram><diagram id="nhyEXxXv6EaGDpx4HKqb" name="Sequence Diagram 預覽"><mxGraphModel dx="1497" dy="346" grid="1" gridSize="10" guides="1" tooltips="1" connect="1" arrows="1" fold="1" page="1" pageScale="1" pageWidth="850" pageHeight="1100" math="0" shadow="0"><root><mxCell id="bfJ9jxt4_2_mjf_NG_RN-0"/><mxCell id="bfJ9jxt4_2_mjf_NG_RN-1" parent="bfJ9jxt4_2_mjf_NG_RN-0"/><mxCell id="bfJ9jxt4_2_mjf_NG_RN-4" value="" style="shape=image;verticalLabelPosition=bottom;labelBackgroundColor=#ffffff;verticalAlign=top;aspect=fixed;imageAspect=0;image=https://i.imgur.com/2wXMUan.png;" vertex="1" parent="bfJ9jxt4_2_mjf_NG_RN-1"><mxGeometry x="360" y="70" width="333" height="217" as="geometry"/></mxCell><mxCell id="bfJ9jxt4_2_mjf_NG_RN-5" value="" style="shape=image;verticalLabelPosition=bottom;labelBackgroundColor=#ffffff;verticalAlign=top;aspect=fixed;imageAspect=0;image=https://i.imgur.com/W8SCy1L.png;" vertex="1" parent="bfJ9jxt4_2_mjf_NG_RN-1"><mxGeometry x="-20" y="20" width="358" height="303" as="geometry"/></mxCell></root></mxGraphModel></diagram></mxfile>